<svg width="175" height="98" viewBox="0 0 175 98" fill="none" xmlns="http://www.w3.org/2000/svg">
<path d="M8.4 78V22H32C37.9733 22 43.2267 23.1733 47.76 25.52C52.3467 27.8667 55.8933 31.1467 58.4 35.36C60.96 39.5733 62.24 44.4533 62.24 50C62.24 55.5467 60.96 60.4267 58.4 64.64C55.8933 68.8533 52.3467 72.1333 47.76 74.48C43.2267 76.8267 37.9733 78 32 78H8.4ZM16.4 71.04H31.52C36.16 71.04 40.16 70.16 43.52 68.4C46.9333 66.64 49.5733 64.1867 51.44 61.04C53.3067 57.84 54.24 54.16 54.24 50C54.24 45.7867 53.3067 42.1067 51.44 38.96C49.5733 35.8133 46.9333 33.36 43.52 31.6C40.16 29.84 36.16 28.96 31.52 28.96H16.4V71.04Z" fill="black"/>
<path d="M69.73 49V33.1H72.61V49H69.73ZM71.17 30.04C70.61 30.04 70.14 29.86 69.76 29.5C69.4 29.14 69.22 28.7 69.22 28.18C69.22 27.64 69.4 27.19 69.76 26.83C70.14 26.47 70.61 26.29 71.17 26.29C71.73 26.29 72.19 26.47 72.55 26.83C72.93 27.17 73.12 27.6 73.12 28.12C73.12 28.66 72.94 29.12 72.58 29.5C72.22 29.86 71.75 30.04 71.17 30.04ZM97.9989 32.95C99.2789 32.95 100.409 33.2 101.389 33.7C102.369 34.2 103.129 34.96 103.669 35.98C104.229 37 104.509 38.29 104.509 39.85V49H101.629V40.18C101.629 38.64 101.269 37.48 100.549 36.7C99.8289 35.92 98.8189 35.53 97.5189 35.53C96.5589 35.53 95.7189 35.73 94.9989 36.13C94.2789 36.53 93.7189 37.12 93.3189 37.9C92.9389 38.68 92.7489 39.65 92.7489 40.81V49H89.8689V40.18C89.8689 38.64 89.5089 37.48 88.7889 36.7C88.0889 35.92 87.0789 35.53 85.7589 35.53C84.8189 35.53 83.9889 35.73 83.2689 36.13C82.5489 36.53 81.9889 37.12 81.5889 37.9C81.1889 38.68 80.9889 39.65 80.9889 40.81V49H78.1089V33.1H80.8689V37.33L80.4189 36.25C80.9189 35.21 81.6889 34.4 82.7289 33.82C83.7689 33.24 84.9789 32.95 86.3589 32.95C87.8789 32.95 89.1889 33.33 90.2889 34.09C91.3889 34.83 92.1089 35.96 92.4489 37.48L91.2789 37C91.7589 35.78 92.5989 34.8 93.7989 34.06C94.9989 33.32 96.3989 32.95 97.9989 32.95ZM114.368 49.18C113.048 49.18 111.788 49 110.588 48.64C109.408 48.28 108.478 47.84 107.798 47.32L108.998 45.04C109.678 45.5 110.518 45.89 111.518 46.21C112.518 46.53 113.538 46.69 114.578 46.69C115.918 46.69 116.878 46.5 117.458 46.12C118.058 45.74 118.358 45.21 118.358 44.53C118.358 44.03 118.178 43.64 117.818 43.36C117.458 43.08 116.978 42.87 116.378 42.73C115.798 42.59 115.148 42.47 114.428 42.37C113.708 42.25 112.988 42.11 112.268 41.95C111.548 41.77 110.888 41.53 110.288 41.23C109.688 40.91 109.208 40.48 108.848 39.94C108.488 39.38 108.308 38.64 108.308 37.72C108.308 36.76 108.578 35.92 109.118 35.2C109.658 34.48 110.418 33.93 111.398 33.55C112.398 33.15 113.578 32.95 114.938 32.95C115.978 32.95 117.028 33.08 118.088 33.34C119.168 33.58 120.048 33.93 120.728 34.39L119.498 36.67C118.778 36.19 118.028 35.86 117.248 35.68C116.468 35.5 115.688 35.41 114.908 35.41C113.648 35.41 112.708 35.62 112.088 36.04C111.468 36.44 111.158 36.96 111.158 37.6C111.158 38.14 111.338 38.56 111.698 38.86C112.078 39.14 112.558 39.36 113.138 39.52C113.738 39.68 114.398 39.82 115.118 39.94C115.838 40.04 116.558 40.18 117.278 40.36C117.998 40.52 118.648 40.75 119.228 41.05C119.828 41.35 120.308 41.77 120.668 42.31C121.048 42.85 121.238 43.57 121.238 44.47C121.238 45.43 120.958 46.26 120.398 46.96C119.838 47.66 119.048 48.21 118.028 48.61C117.008 48.99 115.788 49.18 114.368 49.18ZM131.527 49.18C130.167 49.18 128.967 48.93 127.927 48.43C126.907 47.93 126.107 47.17 125.527 46.15C124.967 45.11 124.687 43.81 124.687 42.25V33.1H127.567V41.92C127.567 43.48 127.937 44.65 128.677 45.43C129.437 46.21 130.497 46.6 131.857 46.6C132.857 46.6 133.727 46.4 134.467 46C135.207 45.58 135.777 44.98 136.177 44.2C136.577 43.4 136.777 42.44 136.777 41.32V33.1H139.657V49H136.927V44.71L137.377 45.85C136.857 46.91 136.077 47.73 135.037 48.31C133.997 48.89 132.827 49.18 131.527 49.18ZM165.03 32.95C166.31 32.95 167.44 33.2 168.42 33.7C169.4 34.2 170.16 34.96 170.7 35.98C171.26 37 171.54 38.29 171.54 39.85V49H168.66V40.18C168.66 38.64 168.3 37.48 167.58 36.7C166.86 35.92 165.85 35.53 164.55 35.53C163.59 35.53 162.75 35.73 162.03 36.13C161.31 36.53 160.75 37.12 160.35 37.9C159.97 38.68 159.78 39.65 159.78 40.81V49H156.9V40.18C156.9 38.64 156.54 37.48 155.82 36.7C155.12 35.92 154.11 35.53 152.79 35.53C151.85 35.53 151.02 35.73 150.3 36.13C149.58 36.53 149.02 37.12 148.62 37.9C148.22 38.68 148.02 39.65 148.02 40.81V49H145.14V33.1H147.9V37.33L147.45 36.25C147.95 35.21 148.72 34.4 149.76 33.82C150.8 33.24 152.01 32.95 153.39 32.95C154.91 32.95 156.22 33.33 157.32 34.09C158.42 34.83 159.14 35.96 159.48 37.48L158.31 37C158.79 35.78 159.63 34.8 160.83 34.06C162.03 33.32 163.43 32.95 165.03 32.95Z" fill="black"/>
<path d="M75.91 56.76V57.36C75.23 57.38 74.71 57.46 74.35 57.6C74.01 57.72 73.78 57.96 73.66 58.32C73.54 58.66 73.48 59.2 73.48 59.94V74.82C73.48 75.54 73.54 76.08 73.66 76.44C73.78 76.8 74.01 77.04 74.35 77.16C74.71 77.26 75.23 77.31 75.91 77.31H78.1C79.04 77.31 79.8 77.21 80.38 77.01C80.98 76.81 81.45 76.5 81.79 76.08C82.15 75.64 82.42 75.06 82.6 74.34C82.78 73.62 82.92 72.74 83.02 71.7H83.71C83.65 72.32 83.62 73.14 83.62 74.16C83.62 74.54 83.63 75.09 83.65 75.81C83.69 76.51 83.75 77.24 83.83 78C82.81 77.96 81.66 77.94 80.38 77.94C79.1 77.92 77.96 77.91 76.96 77.91C76.52 77.91 75.95 77.91 75.25 77.91C74.57 77.91 73.83 77.92 73.03 77.94C72.23 77.94 71.42 77.95 70.6 77.97C69.78 77.97 69 77.98 68.26 78V77.4C68.94 77.36 69.45 77.28 69.79 77.16C70.15 77.04 70.39 76.8 70.51 76.44C70.63 76.08 70.69 75.54 70.69 74.82V59.94C70.69 59.2 70.63 58.66 70.51 58.32C70.39 57.96 70.15 57.72 69.79 57.6C69.45 57.46 68.94 57.38 68.26 57.36V56.76C68.68 56.78 69.23 56.8 69.91 56.82C70.59 56.84 71.32 56.85 72.1 56.85C72.8 56.85 73.49 56.84 74.17 56.82C74.87 56.8 75.45 56.78 75.91 56.76ZM92.7967 62.13C94.5567 62.13 95.9267 62.67 96.9067 63.75C97.9067 64.81 98.4067 66.47 98.4067 68.73H87.8167L87.7867 68.16H95.5267C95.5667 67.18 95.4867 66.28 95.2867 65.46C95.0867 64.62 94.7667 63.95 94.3267 63.45C93.9067 62.95 93.3567 62.7 92.6767 62.7C91.7567 62.7 90.9367 63.16 90.2167 64.08C89.5167 65 89.0967 66.46 88.9567 68.46L89.0467 68.58C89.0067 68.88 88.9767 69.21 88.9567 69.57C88.9367 69.93 88.9267 70.29 88.9267 70.65C88.9267 72.01 89.1467 73.18 89.5867 74.16C90.0267 75.14 90.5967 75.89 91.2967 76.41C92.0167 76.91 92.7567 77.16 93.5167 77.16C94.1167 77.16 94.6867 77.07 95.2267 76.89C95.7667 76.69 96.2667 76.37 96.7267 75.93C97.1867 75.49 97.5867 74.9 97.9267 74.16L98.5267 74.4C98.3067 75.06 97.9467 75.7 97.4467 76.32C96.9467 76.94 96.3167 77.45 95.5567 77.85C94.7967 78.23 93.9167 78.42 92.9167 78.42C91.4767 78.42 90.2367 78.09 89.1967 77.43C88.1767 76.77 87.3867 75.86 86.8267 74.7C86.2867 73.52 86.0167 72.17 86.0167 70.65C86.0167 68.89 86.2967 67.38 86.8567 66.12C87.4167 64.84 88.2067 63.86 89.2267 63.18C90.2467 62.48 91.4367 62.13 92.7967 62.13ZM106.203 83.64C105.143 83.64 104.143 83.53 103.203 83.31C102.263 83.09 101.502 82.74 100.923 82.26C100.363 81.8 100.083 81.21 100.083 80.49C100.083 79.79 100.363 79.19 100.923 78.69C101.483 78.19 102.243 77.81 103.203 77.55L103.383 78.03C102.943 78.17 102.593 78.45 102.333 78.87C102.073 79.29 101.943 79.76 101.943 80.28C101.943 81.2 102.363 81.9 103.203 82.38C104.063 82.88 105.173 83.13 106.533 83.13C107.433 83.13 108.313 83.01 109.173 82.77C110.033 82.55 110.743 82.17 111.303 81.63C111.863 81.09 112.143 80.38 112.143 79.5C112.143 78.84 111.903 78.3 111.423 77.88C110.963 77.44 110.043 77.22 108.663 77.22H106.443C105.803 77.22 105.183 77.17 104.583 77.07C103.983 76.97 103.493 76.76 103.113 76.44C102.733 76.12 102.543 75.63 102.543 74.97C102.543 74.29 102.823 73.64 103.383 73.02C103.943 72.38 104.973 71.73 106.473 71.07L106.833 71.34C106.153 71.7 105.563 72.07 105.063 72.45C104.563 72.81 104.313 73.24 104.313 73.74C104.313 74.38 104.793 74.7 105.753 74.7H109.503C110.343 74.7 111.113 74.82 111.813 75.06C112.533 75.3 113.113 75.68 113.553 76.2C113.993 76.72 114.213 77.4 114.213 78.24C114.213 79.18 113.913 80.06 113.313 80.88C112.713 81.7 111.813 82.36 110.613 82.86C109.433 83.38 107.963 83.64 106.203 83.64ZM106.353 71.61C105.373 71.61 104.483 71.45 103.683 71.13C102.883 70.79 102.253 70.27 101.792 69.57C101.333 68.87 101.103 67.97 101.103 66.87C101.103 65.77 101.333 64.87 101.792 64.17C102.253 63.47 102.883 62.96 103.683 62.64C104.483 62.3 105.373 62.13 106.353 62.13C107.353 62.13 108.243 62.3 109.023 62.64C109.823 62.96 110.453 63.47 110.913 64.17C111.373 64.87 111.603 65.77 111.603 66.87C111.603 67.97 111.373 68.87 110.913 69.57C110.453 70.27 109.823 70.79 109.023 71.13C108.243 71.45 107.353 71.61 106.353 71.61ZM106.353 71.07C107.113 71.07 107.703 70.77 108.123 70.17C108.563 69.57 108.783 68.47 108.783 66.87C108.783 65.27 108.563 64.17 108.123 63.57C107.703 62.97 107.113 62.67 106.353 62.67C105.613 62.67 105.023 62.97 104.583 63.57C104.143 64.17 103.923 65.27 103.923 66.87C103.923 68.47 104.143 69.57 104.583 70.17C105.023 70.77 105.613 71.07 106.353 71.07ZM110.673 64.62L110.133 64.41C110.413 63.73 110.893 63.13 111.573 62.61C112.253 62.09 112.963 61.83 113.703 61.83C114.223 61.83 114.643 61.98 114.962 62.28C115.283 62.56 115.443 62.99 115.443 63.57C115.443 64.19 115.273 64.63 114.933 64.89C114.613 65.13 114.283 65.25 113.943 65.25C113.643 65.25 113.363 65.15 113.103 64.95C112.843 64.73 112.693 64.39 112.653 63.93C112.613 63.47 112.753 62.88 113.073 62.16L113.463 62.25C112.623 62.57 112.023 62.91 111.663 63.27C111.303 63.61 110.973 64.06 110.673 64.62ZM123.529 62.13C125.289 62.13 126.659 62.67 127.639 63.75C128.639 64.81 129.139 66.47 129.139 68.73H118.549L118.519 68.16H126.259C126.299 67.18 126.219 66.28 126.019 65.46C125.819 64.62 125.499 63.95 125.059 63.45C124.639 62.95 124.089 62.7 123.409 62.7C122.489 62.7 121.669 63.16 120.949 64.08C120.249 65 119.829 66.46 119.689 68.46L119.779 68.58C119.739 68.88 119.709 69.21 119.689 69.57C119.669 69.93 119.659 70.29 119.659 70.65C119.659 72.01 119.879 73.18 120.319 74.16C120.759 75.14 121.329 75.89 122.029 76.41C122.749 76.91 123.489 77.16 124.249 77.16C124.849 77.16 125.419 77.07 125.959 76.89C126.499 76.69 126.999 76.37 127.459 75.93C127.919 75.49 128.319 74.9 128.659 74.16L129.259 74.4C129.039 75.06 128.679 75.7 128.179 76.32C127.679 76.94 127.049 77.45 126.289 77.85C125.529 78.23 124.649 78.42 123.649 78.42C122.209 78.42 120.969 78.09 119.929 77.43C118.909 76.77 118.119 75.86 117.559 74.7C117.019 73.52 116.749 72.17 116.749 70.65C116.749 68.89 117.029 67.38 117.589 66.12C118.149 64.84 118.939 63.86 119.959 63.18C120.979 62.48 122.169 62.13 123.529 62.13ZM141.495 62.13C142.255 62.13 142.885 62.23 143.385 62.43C143.905 62.63 144.335 62.91 144.675 63.27C145.055 63.67 145.325 64.17 145.485 64.77C145.645 65.37 145.725 66.18 145.725 67.2V75.21C145.725 76.05 145.895 76.62 146.235 76.92C146.595 77.22 147.185 77.37 148.005 77.37V78C147.665 77.98 147.145 77.96 146.445 77.94C145.745 77.9 145.065 77.88 144.405 77.88C143.745 77.88 143.095 77.9 142.455 77.94C141.835 77.96 141.365 77.98 141.045 78V77.37C141.765 77.37 142.275 77.22 142.575 76.92C142.875 76.62 143.025 76.05 143.025 75.21V66.54C143.025 65.92 142.975 65.35 142.875 64.83C142.775 64.31 142.545 63.89 142.185 63.57C141.845 63.25 141.315 63.09 140.595 63.09C139.755 63.09 139.015 63.33 138.375 63.81C137.755 64.29 137.265 64.95 136.905 65.79C136.565 66.61 136.395 67.53 136.395 68.55V75.21C136.395 76.05 136.545 76.62 136.845 76.92C137.145 77.22 137.655 77.37 138.375 77.37V78C138.055 77.98 137.575 77.96 136.935 77.94C136.315 77.9 135.675 77.88 135.015 77.88C134.355 77.88 133.675 77.9 132.975 77.94C132.275 77.96 131.755 77.98 131.415 78V77.37C132.235 77.37 132.815 77.22 133.155 76.92C133.515 76.62 133.695 76.05 133.695 75.21V65.82C133.695 64.92 133.535 64.26 133.215 63.84C132.895 63.4 132.295 63.18 131.415 63.18V62.55C132.055 62.61 132.675 62.64 133.275 62.64C133.855 62.64 134.405 62.61 134.925 62.55C135.465 62.47 135.955 62.36 136.395 62.22V65.76C136.915 64.4 137.635 63.46 138.555 62.94C139.495 62.4 140.475 62.13 141.495 62.13ZM162.965 54.48V74.73C162.965 75.63 163.125 76.3 163.445 76.74C163.785 77.16 164.385 77.37 165.245 77.37V78C164.625 77.94 164.005 77.91 163.385 77.91C162.805 77.91 162.245 77.94 161.705 78C161.185 78.06 160.705 78.17 160.265 78.33V58.08C160.265 57.18 160.105 56.52 159.785 56.1C159.465 55.66 158.865 55.44 157.985 55.44V54.81C158.625 54.87 159.245 54.9 159.845 54.9C160.425 54.9 160.975 54.87 161.495 54.81C162.035 54.73 162.525 54.62 162.965 54.48ZM156.665 62.13C157.545 62.13 158.365 62.34 159.125 62.76C159.905 63.18 160.425 63.9 160.685 64.92L160.295 65.22C160.015 64.38 159.575 63.77 158.975 63.39C158.395 63.01 157.705 62.82 156.905 62.82C155.725 62.82 154.735 63.43 153.935 64.65C153.155 65.87 152.775 67.75 152.795 70.29C152.795 71.91 152.945 73.26 153.245 74.34C153.565 75.4 154.025 76.2 154.625 76.74C155.245 77.26 155.995 77.52 156.875 77.52C157.715 77.52 158.475 77.16 159.155 76.44C159.835 75.72 160.245 74.66 160.385 73.26L160.745 73.68C160.585 75.2 160.095 76.37 159.275 77.19C158.475 78.01 157.385 78.42 156.005 78.42C154.765 78.42 153.675 78.12 152.735 77.52C151.815 76.92 151.105 76.02 150.605 74.82C150.125 73.62 149.885 72.11 149.885 70.29C149.885 68.47 150.195 66.96 150.815 65.76C151.455 64.54 152.285 63.63 153.305 63.03C154.345 62.43 155.465 62.13 156.665 62.13Z" fill="black"/>
</svg>
